# xmcd
#
# Track frame offsets: 
#        150
#        20796
#        29831
#        47234
#        65266
#        83175
#        99054
#        120417
#        134840
#        145791
#        167009
#
# Disc length: 2736 seconds
#
# Revision: 0
# Processed by: cddbd v1.5PL3 Copyright (c) Steve Scherf et al.
# Submitted via: ExactAudioCopy v0.95a5
#
DISCID=970aae0b
DTITLE=Kent - 张熹自选集
DYEAR=2003
DGENRE=Pop
TTITLE0=同一首歌(刘畅) 
TTITLE1=青春舞曲 (新疆民歌)
TTITLE2=童年(天使合唱团)
TTITLE3=东方红
TTITLE4=爱的奉献  
TTITLE5=让世界充满爱 (郭峰)
TTITLE6=明天会更好 
TTITLE7=歌声与微笑
TTITLE8=远方的客人请你留下来
TTITLE9=茉莉花
TTITLE10=茉莉花
EXTD=
EXTT0=
EXTT1=
EXTT2=
EXTT3=
EXTT4=
EXTT5=
EXTT6=
EXTT7=
EXTT8=
EXTT9=
EXTT10=
PLAYORDER=
